<svg xmlns="http://www.w3.org/2000/svg" viewBox="0 0 48 48" width="48" height="48"><circle cx="24" cy="24" r="24" fill="#E5EACF"></circle><g fill="#23201C" transform="translate(24 24) scale(.68) translate(-24 -24)"><g fill="#6F8140"><path d="M11.4 28.7L3.9 25.9L4.7 23.7L12.2 26.4z"></path><path d="M13.0 24.9L6.7 20.0L8.2 18.1L14.5 23.1z"></path><path d="M15.7 21.9L11.3 15.3L13.3 13.9L17.7 20.6z"></path><path d="M19.3 19.8L17.1 12.1L19.4 11.5L21.6 19.2z"></path><path d="M22.8 19.0L22.8 11.0L25.2 11.0L25.2 19.0z"></path><path d="M26.4 19.2L28.6 11.5L30.9 12.1L28.7 19.8z"></path><path d="M30.3 20.6L34.7 13.9L36.7 15.3L32.3 21.9z"></path><path d="M33.5 23.1L39.8 18.1L41.3 20.0L35.0 24.9z"></path><path d="M35.8 26.4L43.3 23.7L44.1 25.9L36.6 28.7z"></path></g><path d="M4 42l14-22 5 7 3-4 14 19z"></path><path d="M18 20l4 6-3 4-4-4z" fill="#E5EACF"></path></g></svg>